<svg xmlns="http://www.w3.org/2000/svg" width="75" height="75" viewBox="0 0 75 75">
  <g id="about1" transform="translate(-1073 -1301)">
    <path id="Rectangle_6" data-name="Rectangle 6" d="M0,0H75a0,0,0,0,1,0,0V75a0,0,0,0,1,0,0H15A15,15,0,0,1,0,60V0A0,0,0,0,1,0,0Z" transform="translate(1073 1301)" fill="#5aac4e"/>
    <path id="exercise" d="M44.267,13.114h-.844V11.231a2.467,2.467,0,0,0-2.464-2.464H38.311a2.467,2.467,0,0,0-2.464,2.464V17.62H29.036v-.2a2.373,2.373,0,0,0-2.09-2.377,2.333,2.333,0,0,0-1.783.591q-.062.057-.119.117-.057-.06-.119-.117a2.323,2.323,0,0,0-1.783-.591,2.261,2.261,0,0,0-1.44.725,2.305,2.305,0,0,0-3.366-.013,2.313,2.313,0,0,0-3.993,1.593v.275H10.884V11.231A2.467,2.467,0,0,0,8.42,8.767H5.773a2.467,2.467,0,0,0-2.464,2.464v1.882H2.464A2.467,2.467,0,0,0,0,15.578V26.371a2.467,2.467,0,0,0,2.464,2.464h.844v1.882a2.467,2.467,0,0,0,2.464,2.464H8.42a2.467,2.467,0,0,0,2.464-2.464V24.329h3.464a.27.27,0,0,0,0,.042.624.624,0,0,0-.008.083v2.629a6.9,6.9,0,0,0,.857,3.326l2.5,4.523V48.458a.639.639,0,0,0,.639.639H28.4a.639.639,0,0,0,.639-.639V34.968L31.653,31.2a4.117,4.117,0,0,0,.737-2.357V24.328h3.457v6.389a2.467,2.467,0,0,0,2.464,2.464h2.647a2.467,2.467,0,0,0,2.464-2.464V28.836h.844a2.467,2.467,0,0,0,2.464-2.464V15.578A2.467,2.467,0,0,0,44.267,13.114ZM25.682,17.347a1.038,1.038,0,0,1,1.142-1.033,1.087,1.087,0,0,1,.934,1.105v.2H25.62A.635.635,0,0,0,25.682,17.347Zm-2.42-1.033c.035,0,.07-.005.1-.005A1.039,1.039,0,0,1,24.4,17.347a.635.635,0,0,0,.062.275h-1.1a2.321,2.321,0,0,0-1.038.246v-.449A1.087,1.087,0,0,1,23.262,16.313ZM24.4,24.2a1.038,1.038,0,0,1-2.077,0V21.985a2.428,2.428,0,0,0,1.11.269H24.4Zm-4.392-7.9a1.039,1.039,0,0,1,1.038,1.038V24.2a1.038,1.038,0,1,1-2.076,0V17.347A1.039,1.039,0,0,1,20.012,16.308Zm-4.393,1.038a1.038,1.038,0,0,1,2.077,0V24.2a1.038,1.038,0,0,1-2.077,0ZM2.464,27.558a1.188,1.188,0,0,1-1.187-1.187V15.578a1.188,1.188,0,0,1,1.187-1.187h.844V27.558Zm7.142,3.16A1.188,1.188,0,0,1,8.42,31.9H5.773a1.188,1.188,0,0,1-1.187-1.187V11.231a1.188,1.188,0,0,1,1.187-1.187H8.42a1.188,1.188,0,0,1,1.187,1.187ZM10.884,18.9h3.457V23.05H10.884ZM31.113,28.84a2.844,2.844,0,0,1-.511,1.628L27.871,34.4a.64.64,0,0,0-.114.365V47.82H18.973V34.768a.639.639,0,0,0-.08-.309l-2.577-4.668a5.619,5.619,0,0,1-.7-2.709v-.812a2.3,2.3,0,0,0,2.716-.475,2.305,2.305,0,0,0,3.354,0,2.306,2.306,0,0,0,3.354,0A2.313,2.313,0,0,0,29.036,24.2V21.615a.639.639,0,0,0-.639-.639H23.439a1.087,1.087,0,0,1-1.105-.934c0-.032,0-.065-.005-.1v-.014A1.039,1.039,0,0,1,23.366,18.9h4.89l.115.007h.007a2.858,2.858,0,0,1,2.735,2.851V28.84Zm-5.431-6.586h2.076V24.2a1.038,1.038,0,1,1-2.076,0Zm6.709.8V21.756A4.121,4.121,0,0,0,31.242,18.9h4.605V23.05Zm9.754,7.667A1.188,1.188,0,0,1,40.958,31.9H38.311a1.188,1.188,0,0,1-1.187-1.187V11.231a1.188,1.188,0,0,1,1.187-1.187h2.647a1.188,1.188,0,0,1,1.187,1.187V30.718Zm3.309-4.346a1.188,1.188,0,0,1-1.187,1.187h-.844V14.392h.844a1.188,1.188,0,0,1,1.187,1.187Z" transform="translate(1087 1309.233)" fill="#fff"/>
  </g>
</svg>
