<svg xmlns="http://www.w3.org/2000/svg" width="75" height="75" viewBox="0 0 75 75">
  <g id="about2" transform="translate(-1175 -1301)">
    <path id="pera-bottom" d="M0,0H75a0,0,0,0,1,0,0V75a0,0,0,0,1,0,0H15A15,15,0,0,1,0,60V0A0,0,0,0,1,0,0Z" transform="translate(1175 1301)" fill="#5aac4e"/>
    <g id="body" transform="translate(1189.996 1317)">
      <path id="Path_396" data-name="Path 396" d="M19.779,11.307h-1.6a5.941,5.941,0,0,0-4.23,1.753l-7.75,7.75a.665.665,0,0,0,0,.94l3.324,3.324a.665.665,0,0,0,.94,0L16.637,18.9v6.925L11.356,41.006a.664.664,0,0,0,.628.883h5.983a.665.665,0,0,0,.628-.446l4.728-13.591,5.327,13.615a.665.665,0,0,0,.619.423h5.983a.665.665,0,0,0,.619-.907L29.934,25.808V18.9l6.178,6.178a.665.665,0,0,0,.94,0l3.324-3.324a.665.665,0,0,0,0-.94l-7.75-7.75a5.941,5.941,0,0,0-4.23-1.753h-1.6a5.319,5.319,0,1,0-7.012,0Zm8.616,1.33A4.622,4.622,0,0,1,31.686,14l7.28,7.28-2.384,2.384-6.843-6.843a.665.665,0,0,0-1.135.47v8.643a.672.672,0,0,0,.045.242l5.629,14.384H29.723L23.9,25.691a.665.665,0,0,0-.619-.423h-.013a.665.665,0,0,0-.615.446L17.494,40.559H12.918L17.93,26.152a.66.66,0,0,0,.037-.218V17.291a.665.665,0,0,0-1.135-.47L9.989,23.664,7.6,21.28,14.885,14a4.622,4.622,0,0,1,3.29-1.363ZM23.285,3.33A3.989,3.989,0,1,1,19.3,7.319,3.993,3.993,0,0,1,23.285,3.33Z" transform="translate(-1.004)" fill="#fff"/>
      <path id="Path_397" data-name="Path 397" d="M29.531,29.468a.665.665,0,0,0,.915,0L33.3,26.762a2.14,2.14,0,0,0,0-3.129,2.351,2.351,0,0,0-3.2,0h0l-.112.106-.113-.107a2.35,2.35,0,0,0-3.2,0,2.14,2.14,0,0,0,0,3.129ZM27.6,24.6a1,1,0,0,1,1.366,0l.57.541a.665.665,0,0,0,.915,0l.57-.541a1.006,1.006,0,0,1,1.367,0,.811.811,0,0,1,0,1.2l-2.394,2.272L27.595,25.8a.811.811,0,0,1,0-1.2Z" transform="translate(-7.708 -7.041)" fill="#fff"/>
      <path id="Path_398" data-name="Path 398" d="M51.778,11.245c-.325-.332-.664-.654-1.006-.957l-.88,1c.318.281.634.581.938.891Z" transform="translate(-15.716 -2.778)" fill="#fff"/>
      <path id="Path_399" data-name="Path 399" d="M53.411,15.148l1.074-.785c-.273-.373-.562-.74-.86-1.091l-1.014.86C52.888,14.459,53.157,14.8,53.411,15.148Z" transform="translate(-16.627 -3.778)" fill="#fff"/>
      <path id="Path_400" data-name="Path 400" d="M45.208,6.351c-.4-.226-.82-.439-1.237-.633l-.562,1.2c.388.181.775.379,1.151.589Z" transform="translate(-13.543 -1.246)" fill="#fff"/>
      <path id="Path_401" data-name="Path 401" d="M55.551,18.468l1.175-.623c-.217-.409-.45-.813-.694-1.2l-1.127.706C55.132,17.71,55.35,18.087,55.551,18.468Z" transform="translate(-17.396 -4.908)" fill="#fff"/>
      <path id="Path_402" data-name="Path 402" d="M58.9,29.814l1.328-.071c-.025-.464-.066-.929-.123-1.383l-1.319.166C58.842,28.949,58.881,29.382,58.9,29.814Z" transform="translate(-18.698 -8.835)" fill="#fff"/>
      <path id="Path_403" data-name="Path 403" d="M57.2,22.069l1.253-.447c-.155-.434-.328-.869-.514-1.291l-1.217.537c.173.392.334.8.478,1.2Z" transform="translate(-18.006 -6.144)" fill="#fff"/>
      <path id="Path_404" data-name="Path 404" d="M57.2,44.33l-1.2-.58c-.186.384-.39.768-.606,1.142l1.152.664C56.786,45.155,57,44.743,57.2,44.33Z" transform="translate(-17.563 -13.994)" fill="#fff"/>
      <path id="Path_405" data-name="Path 405" d="M58.8,40.543l-1.267-.4c-.131.412-.276.821-.434,1.216l1.235.493C58.5,41.426,58.658,40.986,58.8,40.543Z" transform="translate(-18.131 -12.785)" fill="#fff"/>
      <path id="Path_406" data-name="Path 406" d="M55.087,47.862l-1.1-.745c-.239.353-.5.7-.763,1.043l1.044.823c.288-.365.564-.742.82-1.121Z" transform="translate(-16.832 -15.122)" fill="#fff"/>
      <path id="Path_407" data-name="Path 407" d="M50.6,51.094l.917.963c.333-.317.66-.651.971-.992l-.983-.9C51.219,50.488,50.914,50.8,50.6,51.094Z" transform="translate(-15.954 -16.145)" fill="#fff"/>
      <path id="Path_408" data-name="Path 408" d="M58.328,25.877l1.3-.26c-.09-.455-.2-.91-.321-1.352l-1.282.355C58.143,25.031,58.244,25.454,58.328,25.877Z" transform="translate(-18.443 -7.463)" fill="#fff"/>
      <path id="Path_409" data-name="Path 409" d="M59.834,36.577l-1.313-.214c-.069.424-.154.85-.253,1.267l1.293.307C59.668,37.49,59.76,37.032,59.834,36.577Z" transform="translate(-18.524 -11.518)" fill="#fff"/>
      <path id="Path_410" data-name="Path 410" d="M60.29,32.516l-1.33-.023c-.007.429-.031.863-.069,1.29l1.324.119C60.257,33.443,60.282,32.977,60.29,32.516Z" transform="translate(-18.732 -10.221)" fill="#fff"/>
      <path id="Path_411" data-name="Path 411" d="M48.666,8.557c-.364-.279-.745-.549-1.132-.8L46.8,8.864c.361.237.715.489,1.054.748Z" transform="translate(-14.681 -1.928)" fill="#fff"/>
      <path id="Path_412" data-name="Path 412" d="M4.4,33.75c-.038-.425-.06-.859-.068-1.292L3,32.48c.008.464.032.93.073,1.386Z" transform="translate(0 -10.209)" fill="#fff"/>
      <path id="Path_413" data-name="Path 413" d="M4.487,28.491l-1.319-.168c-.057.454-.1.919-.125,1.383l1.327.073C4.394,29.347,4.433,28.914,4.487,28.491Z" transform="translate(-0.013 -8.823)" fill="#fff"/>
      <path id="Path_414" data-name="Path 414" d="M5.172,24.586,3.89,24.231c-.122.441-.23.895-.323,1.35l1.3.263c.086-.424.186-.847.3-1.258Z" transform="translate(-0.189 -7.451)" fill="#fff"/>
      <path id="Path_415" data-name="Path 415" d="M19.715,6.909,19.154,5.7c-.419.195-.836.407-1.237.631L18.564,7.5C18.938,7.288,19.325,7.09,19.715,6.909Z" transform="translate(-4.999 -1.241)" fill="#fff"/>
      <path id="Path_416" data-name="Path 416" d="M8.195,17.318l-1.127-.706c-.245.391-.479.8-.695,1.2l1.174.624C7.748,18.059,7.966,17.683,8.195,17.318Z" transform="translate(-1.129 -4.898)" fill="#fff"/>
      <path id="Path_417" data-name="Path 417" d="M6.416,20.836,5.2,20.3c-.188.428-.362.862-.514,1.29l1.252.447C6.079,21.638,6.24,21.234,6.416,20.836Z" transform="translate(-0.564 -6.134)" fill="#fff"/>
      <path id="Path_418" data-name="Path 418" d="M13.182,11.262l-.88-1c-.348.307-.686.629-1.007.956l.949.931C12.543,11.848,12.858,11.548,13.182,11.262Z" transform="translate(-2.779 -2.77)" fill="#fff"/>
      <path id="Path_419" data-name="Path 419" d="M12.429,51.08c-.316-.3-.619-.613-.9-.925l-.984.894c.306.336.632.67.97.993Z" transform="translate(-2.526 -16.14)" fill="#fff"/>
      <path id="Path_420" data-name="Path 420" d="M10.466,14.106l-1.013-.862c-.3.352-.589.718-.861,1.09l1.073.786C9.918,14.774,10.187,14.433,10.466,14.106Z" transform="translate(-1.873 -3.769)" fill="#fff"/>
      <path id="Path_421" data-name="Path 421" d="M6.036,41.334c-.158-.4-.3-.81-.433-1.219l-1.269.4c.139.439.3.88.466,1.309Z" transform="translate(-0.446 -12.775)" fill="#fff"/>
      <path id="Path_422" data-name="Path 422" d="M16.287,8.846l-.728-1.113c-.383.251-.764.521-1.134.8l.806,1.058C15.575,9.33,15.93,9.079,16.287,8.846Z" transform="translate(-3.828 -1.922)" fill="#fff"/>
      <path id="Path_423" data-name="Path 423" d="M3.371,36.544c.073.453.164.912.271,1.363L4.936,37.6c-.1-.42-.184-.847-.252-1.268Z" transform="translate(-0.123 -11.508)" fill="#fff"/>
      <path id="Path_424" data-name="Path 424" d="M7.678,44.872c-.213-.37-.416-.755-.6-1.144l-1.2.58c.2.417.421.83.65,1.227Z" transform="translate(-0.963 -13.986)" fill="#fff"/>
      <path id="Path_425" data-name="Path 425" d="M9.823,48.141c-.264-.335-.52-.686-.762-1.044l-1.1.745c.26.385.536.762.819,1.122Z" transform="translate(-1.661 -15.116)" fill="#fff"/>
      <path id="Path_426" data-name="Path 426" d="M33.018,60.264c.463-.017.929-.051,1.386-.1l-.145-1.322c-.425.047-.858.078-1.289.093Z" transform="translate(-10.044 -19.052)" fill="#fff"/>
      <path id="Path_427" data-name="Path 427" d="M30.253,60.264l.049-1.329c-.428-.016-.862-.047-1.29-.094l-.144,1.322C29.328,60.213,29.794,60.247,30.253,60.264Z" transform="translate(-8.669 -19.052)" fill="#fff"/>
    </g>
  </g>
</svg>
