<svg id="Layer_1" data-name="Layer 1" xmlns="http://www.w3.org/2000/svg" viewBox="0 0 264 263"><defs><style>.cls-1{fill:#6bb560;}.cls-2{fill:#7abd70;}.cls-3{fill:#4daa6b;stroke:#e0f9e8;stroke-miterlimit:10;}</style></defs><title>breast</title><ellipse class="cls-1" cx="144.5" cy="148.5" rx="119.5" ry="114.5"/><ellipse class="cls-1" cx="122.5" cy="114.5" rx="122.5" ry="114.5"/><ellipse class="cls-2" cx="133.5" cy="132.5" rx="122.5" ry="114.5"/><path class="cls-3" d="M-1076.88,2.23a9.1,9.1,0,0,1,5.2-5.39,45.56,45.56,0,0,1,15.2-2.59,45.5,45.5,0,0,1,14.65,2.41v0a9.07,9.07,0,0,1,5.81,6,26.47,26.47,0,0,0,.52-5.3,27.47,27.47,0,0,0-7-18.37,32.65,32.65,0,0,0-14-3.13,32.54,32.54,0,0,0-13.71,3,27.44,27.44,0,0,0-7.13,18.49A26.8,26.8,0,0,0-1076.88,2.23Z" transform="translate(1192 82)"/><path class="cls-3" d="M-1023.81,7A41.09,41.09,0,0,0-1025,1.76a37.1,37.1,0,0,0-5.43-11.19,37.63,37.63,0,0,0-3.31-4,73.25,73.25,0,0,0-6-5.47c-.83-.7-1.86-1.33-2.69-2.08l-.09,0a27.44,27.44,0,0,1,7,18.34c0,8.72-4,14.92-8.85,21.78l-34.06,48.09-22.81,32.22,10.78,20.07c.26-.35.51-.71.76-1.06l1-1.46,32-45.12L-1037.63,45c6.91-9.76,14.31-19.23,14.31-31.72A40.54,40.54,0,0,0-1023.81,7Z" transform="translate(1192 82)"/><path class="cls-3" d="M-1101.23,99.48l10.78,20.07c.26-.35.51-.71.76-1.06l1-1.46,32-45.12L-1037.64,45c5.09-7.19,10.44-14.22,12.91-22.41C-1025.28,23.49-1051,68.71-1101.23,99.48Z" transform="translate(1192 82)"/><path class="cls-3" d="M-1034.37,67.26l-34.05-48.09c-4.86-6.86-8.86-13.06-8.86-21.78a27.44,27.44,0,0,1,7.13-18.49l0,0c-.85.82-2,1.5-2.88,2.25a73.13,73.13,0,0,0-6,5.47,39,39,0,0,0-3.32,3.95,37.58,37.58,0,0,0-5.43,11.19A41.05,41.05,0,0,0-1089,7a40.54,40.54,0,0,0-.49,6.22c0,12.49,7.39,22,14.3,31.72l19.08,26.94,31.94,45.12c.35.48.69,1,1,1.46l.75,1.06,10.79-20.07Z" transform="translate(1192 82)"/><path class="cls-3" d="M-1056.23,36.38l12.33,17.42c.33-.45,1.5-2.12,1.83-2.57Z" transform="translate(1192 82)"/><path class="cls-3" d="M-1080.12-8.68l-.55.74a34.43,34.43,0,0,0-5,10.27,38,38,0,0,0-1.09,4.81,37.65,37.65,0,0,0-.45,5.7c0,8.05,3.35,14.73,7.54,21.1a54.41,54.41,0,0,1-4.55-21.86A54.49,54.49,0,0,1-1080.12-8.68Z" transform="translate(1192 82)"/></svg>