<svg xmlns="http://www.w3.org/2000/svg" viewBox="0 0 264 263"><defs><style>.cls-1{isolation:isolate;}.cls-2{fill:#6bb560;}.cls-3{fill:#7abd70;}.cls-4,.cls-8{fill:#5aff8f;}.cls-4{stroke:#8ea6b2;}.cls-10,.cls-12,.cls-4,.cls-6,.cls-9{stroke-linecap:round;stroke-linejoin:round;}.cls-5{fill:#d7f0fc;}.cls-14,.cls-17,.cls-5,.cls-7{mix-blend-mode:multiply;}.cls-6{fill:#70d18f;stroke:#9fb9c6;}.cls-7{fill:#085922;}.cls-9{fill:#b9d7e6;}.cls-12,.cls-9{stroke:#fff;}.cls-10,.cls-21{fill:#fff;}.cls-10{stroke:#b9d7e6;}.cls-11,.cls-12{fill:#0c8633;}.cls-13,.cls-14{fill:#ededee;}.cls-13,.cls-20{mix-blend-mode:screen;}.cls-15{fill:#a05627;}.cls-16,.cls-17{fill:#f6c3a4;}.cls-17{opacity:0.9;}.cls-18{fill:#9f1021;}.cls-19{fill:#ee1d4f;}.cls-20{opacity:0.6;}</style></defs><title>diabetes</title><g class="cls-1"><g id="Layer_1" data-name="Layer 1"><ellipse class="cls-2" cx="144.5" cy="148.5" rx="119.5" ry="114.5"/><ellipse class="cls-2" cx="122.5" cy="114.5" rx="122.5" ry="114.5"/><ellipse class="cls-3" cx="133.5" cy="132.5" rx="122.5" ry="114.5"/><rect class="cls-4" x="150.27" y="138.71" width="12.98" height="31.52"/><path class="cls-5" d="M-1034.06,64a18.77,18.77,0,0,0,5.48-1.2V56.47h-13.26V62.6A13.59,13.59,0,0,0-1034.06,64Z" transform="translate(1192 82)"/><path class="cls-6" d="M-996-21.17c-3.73-9.32-23.06-11.64-34.79-12.18-1.7-.08-3.24-.12-4.55-.14s-2.85.06-4.55.14c-11.73.54-31.06,2.86-34.79,12.18-4,10.1-5.21,72,33,81.11a40.79,40.79,0,0,0,6.37,1,40.61,40.61,0,0,0,6.37-1C-990.8,50.83-992-11.07-996-21.17Z" transform="translate(1192 82)"/><path class="cls-7" d="M-998-22.87c-3.55-6.8-21.92-9.26-33.06-9.66-1.62,0-7,.23-8.65.29-11.15.39-29.52,2.57-33.06,9.37-3.84,7.37-5,52.53,31.33,59.17a50.88,50.88,0,0,0,6.05.72,51.06,51.06,0,0,0,6.06-.72C-993,29.66-994.12-15.5-998-22.87Z" transform="translate(1192 82)"/><path class="cls-8" d="M-1004.78-22.46c-2.9-6.59-17.92-8.23-27-8.61-1.32-.05-2.52-.08-3.54-.1s-2.21.05-3.53.1c-9.12.38-24.14,2-27,8.61-3.14,7.13-4,50.87,25.61,57.3a34.51,34.51,0,0,0,5,.7,34.31,34.31,0,0,0,4.95-.7C-1000.73,28.41-1001.64-15.33-1004.78-22.46Z" transform="translate(1192 82)"/><path class="cls-8" d="M-1005.37-22.33c-2.85-6.32-17.57-7.89-26.51-8.26-1.3-.05-2.47-.08-3.47-.09s-2.17,0-3.47.09c-8.93.37-23.66,1.94-26.5,8.26-3.08,6.84-4,48.79,25.12,55a36.14,36.14,0,0,0,4.85.66,36.3,36.3,0,0,0,4.86-.66C-1001.4,26.46-1002.3-15.49-1005.37-22.33Z" transform="translate(1192 82)"/><rect class="cls-9" x="131.27" y="62.24" width="53.3" height="31.52" rx="15.7"/><path class="cls-10" d="M-1009.29-4a15,15,0,0,1-15,14.81h-20.16A14.89,14.89,0,0,1-1059.34-4V-4.1a14.83,14.83,0,0,1,14.91-14.74h20.16a14.89,14.89,0,0,1,15,14.74Z" transform="translate(1192 82)"/><path d="M-1047.07-8.08v-3.84l1.44-1.43v5.63l-.54.54Zm1.44,2V-.47l-1.44-1.44V-5.74l.9-.9Z" transform="translate(1192 82)"/><path d="M-1041-8.08l-.9.9-.53-.54v-5.63l1.43,1.44Zm0,6.17-1.43,1.43V-6.09l.53-.55.9.9Zm6.33-11.69-1.42,1.44h-4.66l-1.41-1.44Zm0,13.39h-7.49l1.41-1.44h4.66Zm.26-7.51-.52.54-.91-.9v-3.83l1.43-1.44Zm0,7.24-1.43-1.43V-5.74l.91-.9.52.55Z" transform="translate(1192 82)"/><path d="M-1030.69-8.08l-.9.9-.54-.54v-5.63l1.44,1.44Zm0,6.17-1.44,1.43V-6.09l.54-.55.9.9Zm6.32-11.69-1.42,1.44h-4.65l-1.42-1.44Zm0,13.39h-7.49l1.42-1.44h4.65Zm.27-7.51-.53.54-.91-.9v-3.83l1.44-1.44Zm0,7.24-1.44-1.43V-5.74l.91-.9.53.55Z" transform="translate(1192 82)"/><path d="M-1031.44,4.84h.53v.29h0a.88.88,0,0,1,.7-.32,1,1,0,0,1,.46.1,1.42,1.42,0,0,1,.31.25,1.09,1.09,0,0,1,.85-.35,1,1,0,0,1,.62.24.89.89,0,0,1,.28.7v1.8h-.52V5.94a.57.57,0,0,0-.16-.44.53.53,0,0,0-.39-.15.54.54,0,0,0-.39.15.6.6,0,0,0-.15.44V7.55h-.53V5.94a.6.6,0,0,0-.15-.44.54.54,0,0,0-.39-.15.53.53,0,0,0-.39.15.57.57,0,0,0-.16.44V7.55h-.53Z" transform="translate(1192 82)"/><path d="M-1025.4,7.27a.87.87,0,0,1-.67.31.83.83,0,0,1-.43-.11,1.23,1.23,0,0,1-.27-.22.84.84,0,0,1-.15-.33,3.77,3.77,0,0,1,0-.72,4.1,4.1,0,0,1,0-.74.79.79,0,0,1,.15-.32,1.25,1.25,0,0,1,.27-.23.94.94,0,0,1,.43-.1.88.88,0,0,1,.67.32V4.84h.53V7.49a1.16,1.16,0,0,1-.34.89,1.15,1.15,0,0,1-.8.3,1.21,1.21,0,0,1-.91-.46l.41-.33a1,1,0,0,0,.24.16.53.53,0,0,0,.27.08.63.63,0,0,0,.44-.15.6.6,0,0,0,.16-.43Zm-1-1.07a3.66,3.66,0,0,0,0,.43.34.34,0,0,0,.09.2.45.45,0,0,0,.16.14.42.42,0,0,0,.26.07.41.41,0,0,0,.25-.07.56.56,0,0,0,.16-.14.53.53,0,0,0,.09-.2c0-.08,0-.22,0-.43s0-.36,0-.44a.53.53,0,0,0-.09-.2.56.56,0,0,0-.16-.14.61.61,0,0,0-.25-.07.62.62,0,0,0-.26.07.45.45,0,0,0-.16.14.34.34,0,0,0-.09.2A3.87,3.87,0,0,0-1026.44,6.2Z" transform="translate(1192 82)"/><path d="M-1023.16,3.72h.4L-1024,7.58h-.41Z" transform="translate(1192 82)"/><path d="M-1020.75,7.27a.91.91,0,0,1-.68.31.89.89,0,0,1-.41-.1.88.88,0,0,1-.29-.25.81.81,0,0,1-.15-.35,5.05,5.05,0,0,1,0-.69,5.05,5.05,0,0,1,0-.69.82.82,0,0,1,.15-.34.82.82,0,0,1,.7-.35.78.78,0,0,1,.37.09,1.31,1.31,0,0,1,.31.23V3.75h.52v3.8h-.52Zm-.52-1.92a.48.48,0,0,0-.29.07.43.43,0,0,0-.16.19,1.07,1.07,0,0,0-.06.27c0,.1,0,.21,0,.31s0,.21,0,.31a1.07,1.07,0,0,0,.06.27.53.53,0,0,0,.16.2.48.48,0,0,0,.29.07A.5.5,0,0,0-1021,7a.33.33,0,0,0,.15-.2.77.77,0,0,0,.07-.27c0-.1,0-.2,0-.3s0-.2,0-.3a.77.77,0,0,0-.07-.26.33.33,0,0,0-.15-.2A.5.5,0,0,0-1021.27,5.35Z" transform="translate(1192 82)"/><path d="M-1019.5,3.75h.56V7h1.79v.54h-2.35Z" transform="translate(1192 82)"/><path class="cls-11" d="M-1027.31,37.79a3.32,3.32,0,0,1,1.73-.47c2.65-.1,10.38,6.4,10.81,7.11a2,2,0,0,1,.49,1.5,2.13,2.13,0,0,1-.42,1.36c-.45.83-8.32,7.43-11,7.33a2.88,2.88,0,0,1-1.8-.59,1.33,1.33,0,0,1-.59-1.24V39.15A1.42,1.42,0,0,1-1027.31,37.79Z" transform="translate(1192 82)"/><path class="cls-11" d="M-1026.63,38.35a3.3,3.3,0,0,1,1.6-.43c2.18-.09,8.63,5.78,9,6.43a2,2,0,0,1,.44,1.35,2,2,0,0,1-.32,1.23c-.37.75-6.84,6.72-9,6.63a3.4,3.4,0,0,1-1.83-.53,2.93,2.93,0,0,1-.82-1.13V39.58A2.55,2.55,0,0,1-1026.63,38.35Z" transform="translate(1192 82)"/><path class="cls-11" d="M-1042.79,37.79a3.45,3.45,0,0,0-1.77-.47c-2.64-.1-10.4,6.4-10.83,7.11a2.14,2.14,0,0,0-.5,1.5,2.08,2.08,0,0,0,.42,1.36c.45.83,8.31,7.43,11,7.33a3.1,3.1,0,0,0,1.88-.59,1.53,1.53,0,0,0,.67-1.24V39.15A1.6,1.6,0,0,0-1042.79,37.79Z" transform="translate(1192 82)"/><path class="cls-11" d="M-1043.7,38.35a3,3,0,0,0-1.52-.43c-2.18-.09-8.6,5.78-9,6.43a2,2,0,0,0-.42,1.35,2,2,0,0,0,.34,1.23c.36.75,6.84,6.72,9,6.63a2.87,2.87,0,0,0,1.68-.53,1.92,1.92,0,0,0,.67-1.13V39.58A1.85,1.85,0,0,0-1043.7,38.35Z" transform="translate(1192 82)"/><rect class="cls-11" x="152.36" y="119.01" width="10.2" height="17.61" rx="5.03"/><path class="cls-11" d="M-1029.91,49.61a4.82,4.82,0,0,1-4.87,4.5h0a4.82,4.82,0,0,1-4.86-4.5V42.92a4.83,4.83,0,0,1,4.86-4.51h0a4.83,4.83,0,0,1,4.87,4.51Z" transform="translate(1192 82)"/><path class="cls-11" d="M-1033.62,48c0,.31-.49.57-.8.57h-.19c-.31,0-.4-.26-.4-.57V45.21c0-.31.09-.78.4-.78h.19a1,1,0,0,1,.8.78Z" transform="translate(1192 82)"/><path class="cls-12" d="M-1031.67,46.38a3.14,3.14,0,0,1-3.13,3.14,3.15,3.15,0,0,1-3.14-3.14,3.14,3.14,0,0,1,3.14-3.13A3.13,3.13,0,0,1-1031.67,46.38Z" transform="translate(1192 82)"/><path class="cls-13" d="M-1073,19.15s5.47,36.45,36.16,40.78C-1036.8,59.93-1062.3,54.16-1073,19.15Z" transform="translate(1192 82)"/><path class="cls-14" d="M-997.61,19.15s-5.47,36.45-36.16,40.78C-1033.77,59.93-1008.27,54.16-997.61,19.15Z" transform="translate(1192 82)"/><path class="cls-15" d="M-1128.18,87.54a12.94,12.94,0,0,0,2.36,5.4,28,28,0,0,0,1.54,2.36c4.31,6,15.36,11.5,17.31,12.6,2.86,1.62,6,2.82,9,4.17a68.29,68.29,0,0,0,18.08,5,90.13,90.13,0,0,0,17.6.86c6.43-.3,12.76-1.51,19.17-1.93,2.43-.16,9.82,1.36,9.37-2.86-.41-3.79-5.09-5.95-8.27-6.54-2.54-.47-5.4-.11-8-.06-3.25,0-6.47.3-9.72.27s-6.48,0-9.73-.19a50.71,50.71,0,0,1-7.33-.53c2.29-.35,4.86-1.3,4-4a5,5,0,0,0-.61-1.23c1.43-1.25,2.75-3.36,2.67-5.19-.09-2-1.62-3.88-3.13-5.22a15.29,15.29,0,0,0,1.61-1.61,6.22,6.22,0,0,0,1-2.72,6.22,6.22,0,0,0-1.64-5,19.24,19.24,0,0,0-1.9-1.69,5.41,5.41,0,0,0,1.65-4c-.13-1.77-1.37-2.69-2.62-3.87-3.86-3.66-9-7.78-14.65-6.87a20.36,20.36,0,0,0-4.75,1.57c-7-1.76-20.15-5.71-24.54,1l-.58-.35c-2.66-1.53-5.43-2.82-8.22-4.1a86.21,86.21,0,0,0-9-3.57l-1.65-.27a13.79,13.79,0,0,0-4.23,3.94c-.18.22-.34.45-.51.68a24.17,24.17,0,0,0-2.72,8.19,35.38,35.38,0,0,0-.26,9.64q0,.39.12.81a13.5,13.5,0,0,0,.82,2.47C-1145.22,84.84-1130.43,87.2-1128.18,87.54Z" transform="translate(1192 82)"/><path class="cls-16" d="M-1072.59,92.84c2.37,2.86.46,5.19-1.09,7.64-2.25-2.66-7.23-3.09-10.22-2.86-2.66.21-5.46.65-8.11.29-3.64-.5-6.46-2.85-8.91-5.42a16.55,16.55,0,0,0,2.52.8,13.74,13.74,0,0,0,6.86-.37c3,.39,5.53,1.71,8.3,2.8,0,0,0,0,0,0l.16.06a14.52,14.52,0,0,0-6.85-3.65c-.63-.12-1.26-.21-1.89-.28a21.21,21.21,0,0,1-2.67.66,12,12,0,0,1-7.4-1.4c-.15-.08-.45-.22-.75-.4l-1-.93a.69.69,0,0,1,.24-.76,10.06,10.06,0,0,1,2.32-1.39c2.38-1.29,4.79-2.55,7.23-3.72,4.77-2.28,9.81,1.67,14.08,3.66A20.87,20.87,0,0,1-1072.59,92.84Z" transform="translate(1192 82)"/><path class="cls-16" d="M-1076,79.5l.54.37c0,.08,0,.15.11.12l0,0c2.17,1.52,4.27,3.31,3.62,6.36a9,9,0,0,1-2.18,3.77l-.14.15-.45-.37a47.24,47.24,0,0,0-9.84-5.57c-3.06-1.44-5.55-3-9-1.76a26.56,26.56,0,0,0-4.41,2.25,11.17,11.17,0,0,1-2.81-.37,5.85,5.85,0,0,1-2-1.21c-1.72-1.47.53-2.79,1.49-3.53,1.78-1.38,3.74-2.53,5.63-3.74s3.74-2.45,6-2.66,4.94,1.52,6.92,2.45A46.37,46.37,0,0,1-1076,79.5Z" transform="translate(1192 82)"/><path class="cls-16" d="M-1093.82,66.67h0s0,.09,0,.08c1-.35,2-.62,2.93-.89,3.47-.94,6.4.4,9.34,2.15a35.19,35.19,0,0,1,5.06,3.88c.69.61,1.35,1.26,2,1.91,1.68,1.64.4,3.91-.67,5.39a46.58,46.58,0,0,0-5.16-3.22c-2.76-1.55-6-3.45-9.27-3.61a8.22,8.22,0,0,0-4.5,1.55,13,13,0,0,1-3.45-.24c-.74-.12-1.46-.26-2.19-.45-1.5-.39-2.51-2.58-1-3.41A67,67,0,0,1-1093.82,66.67Z" transform="translate(1192 82)"/><path class="cls-16" d="M-1145.45,69.88c.87-3.67,3-7.8,6.33-10,.65.17,1.3.36,1.94.57,3,1,5.89,2.2,8.78,3.45,2.5,1.08,5,2.22,7.41,3.44l1,.53a9.43,9.43,0,0,0-1,3,11.06,11.06,0,0,1,2.87-4.22,9.87,9.87,0,0,1,7.2-2.18c.49-.06,1-.09,1.47-.11,4.56-.14,8.91,1.85,13.35,2.34-.84.38-1.66.77-2.48,1.11-1.13.46-4.12,1.26-4,2.89.21,3.19,4,4.21,7.12,4.08-.91.62-1.76,1.26-2.49,1.72-1.51,1-5.48,2.83-5.64,4.93-.17,2.35,2.22,3.83,4.57,4.11-1,.6-1.89,1.2-2.83,1.75-.63.37-2.15,1-2.35,1.91-2.66-2.41-5.71-4.35-9.42-4.12a14.22,14.22,0,0,1,5.76,2.54,24.44,24.44,0,0,1,6.2,5.16c3.2,3.56,6.51,5.83,11.32,6.47,3.92.52,7.84-.84,11.8-.09,1.64.32,7.6,2.88,4.54,5.2-1.6,1.22-4.17,1-6,1.17-4.49.34-9,1.76-13.43,2.64-4.73.94-8.83-1.66-13.36-2.68-.48-.11-1-.25-1.44-.39.59.26,1.19.53,1.77.83l1.91,1c.35.09.69.19,1,.3,2.53.82,5.07,2,7.76,2.07s5.72-1.07,8.36-1.58c3-.59,4.94-1.33,8-1.51.05,0,4.47.59,6.3.74,2.56.21,5.65.33,8.21.48,5.37.31,10.68.1,16,.06a38,38,0,0,1,8.59.49c1.52.33,8,3.8,5.71,6.39-1.31,1.44-5.18,1-6.9.92a57,57,0,0,0-8.64.72c-5.28.55-10.45,1.32-15.78,1.37a90.41,90.41,0,0,1-16.66-1.59,67.32,67.32,0,0,1-15.43-4.58l-7.4-3.25a31.74,31.74,0,0,1-3.69-2,5.39,5.39,0,0,0-.52-.3l.26.07q-2.52-1.3-5-2.71a20.94,20.94,0,0,1-4-3c-.32-.24-.65-.47-1-.71a31.41,31.41,0,0,1-5.39-5.48,17.26,17.26,0,0,1-2-3.59c-.08-.18-.17-.41-.27-.67-.18-.51-.36-1-.52-1.51,0-.17-.09-.35-.13-.54h0a1.22,1.22,0,0,1-.07-.17c-.31-1.75-.13-4.47.78-5.75,0,0,0-.22-.06-.17-1.23,1-1.57,3.44-1.41,5-2.22-.41-4.43-.86-6.65-1.29a95.06,95.06,0,0,0-10.78-1.69C-1147.32,79.44-1146.37,73.73-1145.45,69.88Z" transform="translate(1192 82)"/><path class="cls-17" d="M-1125.82,92.94a28,28,0,0,0,1.54,2.36c4.31,6,15.36,11.5,17.31,12.6,2.86,1.62,6,2.82,9,4.17a68.29,68.29,0,0,0,18.08,5,90.13,90.13,0,0,0,17.6.86c6.43-.3,12.76-1.51,19.17-1.93,2.43-.16,9.8,1.35,9.37-2.84a.9.9,0,0,1-.2.23,3.77,3.77,0,0,1-3.09.73c-1.64-.19-3.24-.63-4.87-.89a41.38,41.38,0,0,0-5.66-.45c-3.9-.08-7.8,0-11.7,0s-7.86,0-11.79,0c-2.38,0-4.78,0-7.16-.09-1.22-.06-4,0-4.68-1.4-.74-1.59,1.5-2.44,2.65-2.8,2.45-.77,5-1.4,7.49-2a25,25,0,0,1-4-.41c2-.31,4.24-1.09,4.16-3.09-.17.51-.8.61-1.49.45a23.54,23.54,0,0,0-5.85-.83c-4.54.12-8.89,1.78-13.38,2.32a18,18,0,0,1-11.92-2.29c-1.61-1-3.26-2-4.86-3-7.7-4.09-15-12.7-13.07-21.85,1.06-5.07,5.28-11.17,10.49-12a6.27,6.27,0,0,1,2.23-.34,6,6,0,0,1,4.3,1.94l.05,0a3.61,3.61,0,0,1,.72,1l.15.19a5.2,5.2,0,0,1,.39.64.24.24,0,0,1,.11.22c1,2.13.38,5-.06,7.11-.58,2.82-2.7,6.75-5.47,8.12-1.25.62,2.5,2.17,4.47,3.73,2.43,1.92,4.18,4.51,6.5,6.53,3,2.61,6.63,3.63,10.53,3.9,5.58.39,11.43-.25,16,3.29h0a5,5,0,0,0-.61-1.23c.13-.11.26-.24.39-.37-.19-.15-.37-.3-.55-.47-1.46-1.4-2.55-3-4.35-4-3.77-2.09-8.82-3.56-11.43-7.23-.89-1.27-1.54-3.37-.2-4.63,1.49-1.4,3-.53,4.62.23a75.24,75.24,0,0,1,12,7c-.31-.33-.64-.65-1-.94a15.29,15.29,0,0,0,1.61-1.61s0,0,0,0c-1.5.47-3.79-.92-5.06-1.79-1.58-1.08-3.11-2.2-4.74-3.21a35.37,35.37,0,0,0-4.19-2.28,13.17,13.17,0,0,1-3.12-1.66c-1.35-1.13-2.55-3.57-1.25-5.2s3.63-1.57,5.33-.93c3,1.12,5.45,3.2,8.19,4.75,1,.57,2.1,1.07,3.13,1.67-.27-.24-.55-.47-.83-.69a5,5,0,0,0,.75-.9c-3.07-4.37-9.12-5.78-13.27-8.87-1.34-1-2.25-3.15-.48-4.33a3.67,3.67,0,0,1,1.24-.52,10.4,10.4,0,0,0-3.86-.13,20.36,20.36,0,0,0-4.75,1.57c-7-1.76-20.15-5.71-24.54,1l-.58-.35c-2.66-1.53-5.43-2.82-8.22-4.1a86.21,86.21,0,0,0-9-3.57l-1.65-.27a5.05,5.05,0,0,0-.45.25,56.14,56.14,0,0,1,9,4.14c2.77,1.74,5.85,4.46,4.82,8.1a20,20,0,0,1-3.44,6.6,7.94,7.94,0,0,1-5.37,3.36c-2.62.38-5.29.19-7.93.43-1.42.13-2.83.3-4.25.39a13.4,13.4,0,0,0,.82,2.46c.65.11,15.44,2.47,17.69,2.81A12.94,12.94,0,0,0-1125.82,92.94Z" transform="translate(1192 82)"/><path class="cls-17" d="M-1073.22,101.12a15.41,15.41,0,0,0-5.61-2.51c-1.48-.24-3-.4-4.46-.53a.16.16,0,0,1-.15-.17.17.17,0,0,1,.11-.2,19,19,0,0,1,3.31-.79c-1.43-1.12-3.14-1.85-4.64-2.88-1.66-1.15-3.48-2.64-5.54-3-1.91-.27-4,.38-5.84-.34a3.44,3.44,0,0,1-2.33-2.28c-.23-1.31.66-2.25,1.66-3A15.17,15.17,0,0,1-1092,83.1a5.88,5.88,0,0,1,4.25.24l.34.17a8.71,8.71,0,0,1,2.49.95,75.24,75.24,0,0,1,12,7c-.31-.33-.64-.65-1-.94.12-.13.26-.26.4-.39a24.61,24.61,0,0,0-2.22-1.74c-1.25-.79-2.54-1.52-3.84-2.25-2.22-1.27-4.36-2.82-6.67-3.91a8.16,8.16,0,0,0-4.28-.91c-1.36.15-2.62.65-4,.92-1.17.24-3.29.56-4-.79-.54-1.08,0-2.39.71-3.27a16.44,16.44,0,0,1,4.68-3.9,6.14,6.14,0,0,1,5.51-.85,6.31,6.31,0,0,1,2.24.38c3,1.12,5.45,3.2,8.19,4.75,1,.57,2.1,1.07,3.13,1.67-.27-.24-.55-.47-.83-.69l0,0a63.57,63.57,0,0,0-6.56-4.82,28.16,28.16,0,0,0-5.53-3c-2.18-.73-4.31,0-6.44.51-1.52.35-3.15.62-4.56-.22a1.79,1.79,0,0,1-.73-2.39c.8-1.46,2.48-2.42,3.88-3.19a23.9,23.9,0,0,1,2.22-1.08,26.73,26.73,0,0,0-2.69,1c-5.57-1.4-15.05-4.18-20.89-1.88a13,13,0,0,0-5.4,6.89,12.34,12.34,0,0,1,3.05-3.64,13.64,13.64,0,0,1,5.93-2.4c4.57-.62,9,1,13.33,2.2a.19.19,0,0,1,0,.36c-1.77.72-4.89,1.89-4,4.41.65,1.92,2.75,2.76,4.34,3.74a.19.19,0,0,1,0,.33c-2,1.32-4.49,2.16-6,4-1,1.18-1.24,2.74,0,3.87a11,11,0,0,0,3.27,1.91.19.19,0,0,1,.07.29c-1,1.08-2.23,2-2.76,3.4,1.68,1.67,3.13,3.55,4.92,5.11,3,2.61,6.63,3.63,10.53,3.9,5.58.39,11.43-.25,16,3.29h0A4.49,4.49,0,0,0-1073.22,101.12Z" transform="translate(1192 82)"/><path class="cls-17" d="M-1119.4,66.94a15.77,15.77,0,0,1,1.27-1.32A7.58,7.58,0,0,0-1119.4,66.94Z" transform="translate(1192 82)"/><path class="cls-17" d="M-1043.1,116c1.83-.12,6.48.71,8.46-.68a14,14,0,0,1-3.31,0c-1.46-.15-2.91-.4-4.36-.58a24.62,24.62,0,0,0-4.93.05c-6,.39-11.91.62-17.88.52a83.3,83.3,0,0,1-8.66-.46c-2.55-.3-5.13-.41-7.66-.83a22.33,22.33,0,0,1-3.61-.87,5.9,5.9,0,0,1-2.47-1.34c-.92-1-.28-2.1.69-2.8a15.36,15.36,0,0,1,5.39-2.17,33.06,33.06,0,0,1,5.33-.85,4.82,4.82,0,0,0,3.19-1.69,8.69,8.69,0,0,1-2.65.48,74,74,0,0,0-9.64.62c-3.27.58-6.51,1.68-9.85,1.71a21.79,21.79,0,0,1-5.51-.7,42.51,42.51,0,0,1-19.11-10.92c-4.23-4.25-7.55-10-6-16-1.52,1.27-2.15,3.39-3.8,4.51-1.89,1.28-4,.28-6,.08-2.76-.28-5.54-.45-8.3-.68-.88-.08-1.76-.16-2.64-.26a11.36,11.36,0,0,0,.59,1.6c.65.11,15.44,2.47,17.69,2.81a12.94,12.94,0,0,0,2.36,5.4,28,28,0,0,0,1.54,2.36c4.31,6,15.36,11.5,17.31,12.6,2.86,1.62,6,2.82,9,4.17a68.29,68.29,0,0,0,18.08,5,90.13,90.13,0,0,0,17.6.86C-1055.84,117.62-1049.51,116.41-1043.1,116Z" transform="translate(1192 82)"/><path class="cls-18" d="M-1033.88,83.91l-.37-.58-.37.58c-2.82,4.49-12.42,21.22-.37,23.65a7.32,7.32,0,0,0,1.48,0C-1021.46,105.13-1031.06,88.4-1033.88,83.91Z" transform="translate(1192 82)"/><path class="cls-19" d="M-1034.84,88.61l-.28-.43-.28.43c-2.1,3.35-9.27,15.84-.27,17.66a5.06,5.06,0,0,0,1.1,0C-1025.57,104.45-1032.74,92-1034.84,88.61Z" transform="translate(1192 82)"/><g class="cls-20"><path class="cls-21" d="M-1033.92,102.41a2.54,2.54,0,0,1-2.54,2.54,2.55,2.55,0,0,1-2.55-2.54,2.55,2.55,0,0,1,2.55-2.55A2.55,2.55,0,0,1-1033.92,102.41Z" transform="translate(1192 82)"/><path class="cls-21" d="M-1037.58,97.44a.44.44,0,0,1-.44.43.43.43,0,0,1-.43-.43A.44.44,0,0,1-1038,97,.44.44,0,0,1-1037.58,97.44Z" transform="translate(1192 82)"/></g></g></g></svg>