<svg id="Layer_1" data-name="Layer 1" xmlns="http://www.w3.org/2000/svg" viewBox="0 0 264 263"><defs><style>.cls-1{fill:#6bb560;}.cls-2{fill:#7abd70;}.cls-3{fill:#fff;fill-rule:evenodd;}</style></defs><title>liver</title><ellipse class="cls-1" cx="144.5" cy="148.5" rx="119.5" ry="114.5"/><ellipse class="cls-1" cx="122.5" cy="114.5" rx="122.5" ry="114.5"/><ellipse class="cls-2" cx="133.5" cy="132.5" rx="122.5" ry="114.5"/><path class="cls-3" d="M-1034.91,43.4a110.09,110.09,0,0,0,4.63,18.76c.22,1.25.66,2.51,2.64,1.67,14.78-5.84,24-15,26.25-30.65C-998.09,8-980.45,6.7-978.24-6c.45-2.09.45-4.17-1.54-5.63-18.09-12.72-40.36-2.3-58,6.26-1.32.83-1.32,1.66-1.1,2.91,3.09,15,.88,30.23,4,45.87Zm-19-8.55a69.29,69.29,0,0,1-12.34-26.27c-.22-1.46-.22-3.54-1.11-4.58-1.32-1.25-3.53,0-5.29,0-32.42-2.3-67.92,21.89-69.46,54.83-.66,14.17,4.41,38.15,11.68,50.86a21,21,0,0,0,7.06,7.92c3.08,1.89,4.41,1.89,7.28-.2a24.66,24.66,0,0,0,5.29-5.21c10.15-13.76,33.3-14.8,48.73-24,7.5-4.38,14.34-9.59,19.85-17.1,2.87-4,4.19-2.71,2.87-7.5-2.65-9.59-8.6-20.64-14.56-28.77Zm3.53-.83c6.61,9.38,11.69,19.59,13,31.06.44,3.33,2,5.21,4.19,7.08,2,1.47,9.71,6.68,11.25,2.51a1.65,1.65,0,0,0-.89-2.17,1.62,1.62,0,0,0-.43-.12c-4.42-1.47-6.84-4.18-8.6-8.55a108.78,108.78,0,0,1-8.6-40.87c0-5.63-.23-11.46.44-17.51,0-1-.22-2.5-.22-3.75-.45-6.46,1.1-6-5.74-3.13-.66.21-1.1.63-1.76.42-.66-.63,0-1.25,0-1.88.88-2.08,1.54-4.38,2.2-6.46.22-.62.66-1.46-.22-1.87-2.2-1.25-6.84.2-7.72,2.5a75.73,75.73,0,0,1-4.41,8.54A5.61,5.61,0,0,1-1062.74,3c-2.86.42-2.86.84-2,3.34A108.21,108.21,0,0,0-1050.35,34Z" transform="translate(1192 82)"/></svg>