<svg id="Layer_1" data-name="Layer 1" xmlns="http://www.w3.org/2000/svg" viewBox="0 0 264 263"><defs><style>.cls-1{fill:#6bb560;}.cls-2{fill:#7abd70;}.cls-3{fill:#b7ceb5;}.cls-4{fill:#fff;}.cls-5{fill:#dbe6da;}</style></defs><title>lungs</title><ellipse class="cls-1" cx="144.5" cy="148.5" rx="119.5" ry="114.5"/><ellipse class="cls-1" cx="122.5" cy="114.5" rx="122.5" ry="114.5"/><ellipse class="cls-2" cx="133.5" cy="132.5" rx="122.5" ry="114.5"/><path class="cls-3" d="M-1067.71,3.14c-.74-11.71,9.46-44.81-15.82-44.19S-1130,6-1135.74,28.83s-23.23,82.63,5.75,86.33,55.3,5.14,61.46-10.07-1.6-44.36,1.24-58.79c1.1-5.64,6-10.89,4.31-22.61S-1067.37,8.4-1067.71,3.14Z" transform="translate(1192 82)"/><path class="cls-3" d="M-1085.51-37.21c-3.6.93-6.73,3.59-9.64,6.42A162.4,162.4,0,0,0-1119.8-.21c-2.82,4.51-5.49,9.47-5.32,14.78.17,5.47,3.31,10.34,6.33,14.89-4.54,1.29-7.8,5.23-10.29,9.24a61.81,61.81,0,0,0-9.06,29.54c-.36,8-2,15.73-.42,23.78,1.09,5.63,3.8,11.18,8.48,14.51a25.2,25.2,0,0,0,10.56,3.94,96.44,96.44,0,0,0,11.53,1c8.06.4,16.83.6,23.36-4.14,7.53-5.46,9.64-15.67,10.31-24.95.37-5.1.48-10.23.34-15.35-.13-4.55-.19-10.94-2.36-15-2.06-3.83-5.86-6.63-7.28-10.73,6.11.46,11.47-4.95,12.85-10.92,1.23-5.27-.29-10.65-.11-16,.21-6.35,1.55-12.62,1.3-19a59,59,0,0,1,0-9c.36-3.15-.51-7.13-1.12-10.27-1-4.87-3-11-8.12-12.94A10.83,10.83,0,0,0-1085.51-37.21Z" transform="translate(1192 82)"/><path class="cls-3" d="M-1091.52-26.11c-7.34,2.63-12,9.32-16.12,15.84a50.66,50.66,0,0,0-8,27.8,18.33,18.33,0,0,0,.84,5.85c1.45,4.07,5.2,7,9.26,8.49s8.44,1.74,12.76,1.95c3.93.19,8.15.26,11.41-1.93,4.41-2.95,5.48-8.89,5.91-14.18s.66-10.37.59-15.55c0-3.59-1.2-6.59-1.53-10.07-.55-5.69,1.19-15.47-5.11-18.49a11.06,11.06,0,0,0-6.52-.6A19.58,19.58,0,0,0-1091.52-26.11Z" transform="translate(1192 82)"/><path class="cls-3" d="M-1122,51.38a64.74,64.74,0,0,0-10.11,18.17c-2.2,6.6-2.81,13.87-.83,20.54a15.61,15.61,0,0,0,4.42,7.51c3.19,2.74,7.63,3.38,11.82,3.69a126.9,126.9,0,0,0,13.79.28c4.14-.13,8.39-.51,12.07-2.4,4.69-2.41,7.92-7.07,9.56-12.08s1.84-10.37,1.7-15.63c-.25-9.46-3.11-23-12.67-27.7C-1102.85,38.53-1115.15,42.35-1122,51.38Z" transform="translate(1192 82)"/><path class="cls-4" d="M-993.66,71c-4.47-2.62-8-7.09-7.4-8.63s4.93,1.23,9.87,3.23,10.79,2.16,12,.93-9.09-1.85-10.79-2.47-4-2.77-6.94-3.7-3.85-2.93-6.53-4.62-16.9-24.51-18.29-28.37,7.1-9.09,12.65-10.48,10,4.78,11.09,6-2.46,2-2,3.09,4.16-.47,5.55-1.24,4.78.93,5.86,0-3.09-1.54-6.17-2.46-5.09-5.55-5.09-5.55c4.63.3,11.1-3.7,12.18-5.25s-.39-1.49-.77-1.38c-12.23,3.36-11.71,3.85-15,3.51s-.56-.74,2.53-5.67,9.71-4.78,8.32-6.63-9.4,1.39-11.72,2.31-3.08-2.77-.3-7.24a9.58,9.58,0,0,0,1.47-7,.27.27,0,0,0-.52,0,35.1,35.1,0,0,1-3.73,7.32c-2.47,4-5.24-3.4-5.55-7.4s-4.78-9.41-4.78-9.41.77-1.54,0-1.85-1.23,1.85-2.46.62-3.4-2.78-3.7-2,2.15,2.77,4.47,4.47,6.78,8.44,3.39,9.09c-4.78.92-9-5.47-9.87-4.16-.53.79,1.39,2.93,6.32,5.09,5.43,2.37,7.7,8.55,9.91,13.59,1.07,2.44,2.56,4.6.86,7.14-1.34,2-3.73,3.21-5.61,4.51a24.33,24.33,0,0,1-11.32,4.51c-9.87.92-12.2-8.17-17.75-16.34-4.66-6.85-5.34-36.31-4.76-45.63h-11.55c-.12,8.62,1.23,36-3.43,42.85-5.55,8.17-16.31,12.64-26.18,11.72s-10-6-8.33-7.86,3.09-5.24,2.78-7.25,1.7-5.09,6.63-7.24,6.85-4.3,6.32-5.09c-.89-1.31-5.09,5.08-9.87,4.16-3.39-.65,1.08-7.4,3.39-9.09s4.78-3.7,4.47-4.47-2.46.77-3.7,2-1.69-.93-2.46-.62,0,1.85,0,1.85-4.47,5.4-4.78,9.41-3.08,11.4-5.55,7.4a35.1,35.1,0,0,1-3.73-7.32.27.27,0,0,0-.52,0,9.58,9.58,0,0,0,1.47,7c2.78,4.47,2,8.17-.3,7.24s-10.33-4.16-11.72-2.31S-1110,3-1107,8s5.82,5.33,2.52,5.67-2.78-.15-15-3.51c-.38-.11-1.85-.16-.77,1.38s7.55,5.55,12.18,5.25c0,0-2,4.62-5.09,5.55s-7.25,1.54-6.17,2.46,4.47-.77,5.86,0,5.09,2.31,5.55,1.24-3.08-1.85-2-3.09,5.55-7.4,11.1-6,13.1.77,11.71,4.62-14.67,32.53-17.36,34.23-3.6,3.7-6.53,4.62-5.24,3.09-6.94,3.7-12,1.24-10.79,2.47,7.09,1.08,12-.93,9.25-4.77,9.87-3.23-2.93,6-7.4,8.63-16.54,10-14.59,13.26,4.42-5.24,11.2-7.4c0,0,5.24-4,6.47-1.7s1.54,4.47,2.62,3.24.16-6.48,2.93-10.48,6.48-13.26,7.86-12.49,1.85,10.94.93,16.19-1.7,15.57-1.7,17-4.47,10.79-3.23,10.79,2.62-2.62,4.31-1.85,4.47,7.25,5.4,6.63-3.24-11.1-3.16-12.48-1.77-9.1-.7-9.25,6.79,8.94,7.71,8.32-1.49-5.34-5.39-9.86.92-8.48,1.08-11.26,1.23-13.26.77-18.65,4-22,11.71-26c7.21-3.75,18.09-7.09,22.65-11.29a5.16,5.16,0,0,1,3.38-1.35,5.19,5.19,0,0,1,3.39,1.35c4.56,4.2,8.08,7.54,15.29,11.29,7.71,4,19.58,20.65,19.11,26.05s.62,15.88.77,18.65,5,6.73,1.08,11.26-6.32,9.25-5.39,9.86,6.63-8.48,7.71-8.32-.77,7.86-.69,9.25-4.09,11.87-3.17,12.48,3.7-5.85,5.4-6.63,3.08,1.85,4.31,1.85-3.23-9.4-3.23-10.79-.77-11.71-1.7-17-.46-15.42.93-16.19,5.08,8.48,7.86,12.49,1.85,9.25,2.93,10.48,1.38-.93,2.62-3.24,6.47,1.7,6.47,1.7c6.79,2.16,9.25,10.63,11.2,7.4S-989.19,73.64-993.66,71Z" transform="translate(1192 82)"/><path class="cls-5" d="M-1040.16,3.14c.75-11.71-9.46-44.81,15.82-44.19S-977.88,6-972.13,28.83s23.23,82.63-5.75,86.33-55.29,5.14-61.46-10.07,1.6-44.36-1.23-58.79c-1.11-5.64-6-10.89-4.32-22.61S-1040.5,8.4-1040.16,3.14Z" transform="translate(1192 82)"/><path class="cls-3" d="M-1036.19-23.12c-2.18,11,3.22,22.54.44,33.37-.73,2.82-2,5.85-.78,8.5a8.24,8.24,0,0,0,4,3.65c8.76,4.47,19.34,2.68,28.77-.12A16.65,16.65,0,0,0-998,19.69c3.17-2.52,4.24-6.9,4.21-11-.05-7.32-3-14.38-7.13-20.44s-9.38-11.22-14.6-16.35C-1023.14-35.54-1033.82-35-1036.19-23.12Z" transform="translate(1192 82)"/><path class="cls-5" d="M-977.88,115.16c29-3.7,11.51-63.51,5.75-86.33a148.18,148.18,0,0,0-7.4-21.32,34.84,34.84,0,0,1,.13,11.3c-1.07,6.88-4.53,13.71-10.51,17.27-1,.62-2.29,1.39-2.24,2.59,0,1,1,1.7,2,2.11,4.1,1.82,9,1.56,12.74,4.09,3.17,2.16,4.81,6,5.35,9.84,1.5,10.77-4.78,21.52-13.54,28S-1005.26,92-1016,93.9q-8.17,1.47-16.45,2.3a77.22,77.22,0,0,0-8.84,1.18,32.35,32.35,0,0,0,1.92,7.71C-1033.17,120.3-1006.87,118.86-977.88,115.16Z" transform="translate(1192 82)"/><path class="cls-3" d="M-1032.72-4.22a4.37,4.37,0,0,0,4-1.14A10.29,10.29,0,0,0-1026.37-9c1.71-4.11,4.06-27.85-6.08-20.44C-1037.32-25.9-1039.63-6.28-1032.72-4.22Z" transform="translate(1192 82)"/></svg>