<svg id="Layer_1" data-name="Layer 1" xmlns="http://www.w3.org/2000/svg" viewBox="0 0 264 263"><defs><style>.cls-1{fill:#6bb560;}.cls-2{fill:#7abd70;}.cls-3{fill:#d0ecce;}.cls-4{fill:#456843;}.cls-5,.cls-8{fill:#223421;}.cls-5{opacity:0.8;}.cls-6{fill:#254223;}.cls-7{fill:#386335;}.cls-9{fill:#e7f6e7;}</style></defs><title>machar</title><ellipse class="cls-1" cx="144.5" cy="148.5" rx="119.5" ry="114.5"/><ellipse class="cls-1" cx="122.5" cy="114.5" rx="122.5" ry="114.5"/><ellipse class="cls-2" cx="133.5" cy="132.5" rx="122.5" ry="114.5"/><path class="cls-3" d="M-970.83,76l-45-25.18-22.86-.73-13.63.09c-32.87-1.39-64,4.38-64,4.38-11.5.53-42.38,6.91-42.38,6.91l20.46,27,5.76-4.26s16.33-14.4,23.48-14.58,18.51,8.08,18.51,8.08l2.65-.41,2.27-5.85,90.75,49.91-2.32-8.81-27.75-31.28h0c-4.7-5.29-5.6-12.43-1.34-15.83,3.74-3,16,4.15,19,5.94l.65.39,1-.15-1.37-7.25,34.81,11.81Z" transform="translate(1192 82)"/><path class="cls-4" d="M-1035.76.06s-2.67-35.32-.48-37.07,6.84,18.33,10,33.64l-1.65,2.21-6-26,4.11,27.67S-1034,3.18-1035.76.06Z" transform="translate(1192 82)"/><path class="cls-4" d="M-1047.36-1.53s-13.77-20.81-18.12-23.3-5.72,16.71-7.83,27.32-4.2,50-17.17,75.2l2.65-.41A337.12,337.12,0,0,0-1067.49,3s0-20.42,2.28-20.42,14.87,18.8,14.87,18.8S-1047.77,4.34-1047.36-1.53Z" transform="translate(1192 82)"/><path class="cls-5" d="M-1024.36-2.73s-17.1-17.32-39.81-23.86c-23.47-6.75-22.89-13.12-22.89-13.12s-7.32,32.89,32.49,38.1C-1030.36,1.56-1024.36-2.73-1024.36-2.73Z" transform="translate(1192 82)"/><path class="cls-6" d="M-1006.14-1s14-21.29,17.5-22.36,4.2,2.38,3.71,11.16,1.4,61.32,6,70.63h-1.36S-991,15.19-988.94-15.19c-5.7,5-9.92,11.78-13.07,17.85Z" transform="translate(1192 82)"/><path class="cls-4" d="M-1004.39,26.49c-3.11,2.38-7.53,4.09-13.65,4.63-19.77,1.75-20.61-20.1-20.61-20.1s-.32-8.16,5.13-13.94A16.05,16.05,0,0,1-1029-6.27a20.29,20.29,0,0,1,6.23-2c14.94-2.31,21.43,8.15,23.66,14.8a19.79,19.79,0,0,1,.67,2.52C-997.33,14.84-998.39,21.9-1004.39,26.49Z" transform="translate(1192 82)"/><path class="cls-4" d="M-1018,31.12c-19.77,1.75-20.61-20.1-20.61-20.1s-.32-8.16,5.13-13.94h0s-5.12,16.52,7.3,24,29.34,2.44,27.73-12C-996.74,17.8-1000.06,29.54-1018,31.12Z" transform="translate(1192 82)"/><path class="cls-4" d="M-1004.39,26.49c2.48-4.29,8.52-10.79,2.18-23.08-8.25-16-26.84-9.68-26.84-9.68a20.29,20.29,0,0,1,6.23-2c14.94-2.31,21.43,8.15,23.66,14.8a19.79,19.79,0,0,1,.67,2.52C-997.33,14.84-998.39,21.9-1004.39,26.49Z" transform="translate(1192 82)"/><path class="cls-6" d="M-1031.07,20.22c-.45,9-13.64,12.4-33.92,21.08l-.66.27c-19.82,8.23-28.46.25-44.61.41-15.65.14-17.38-5.26-14.49-7.33a2.7,2.7,0,0,1,.4-.25c2-1.07,4.49-.81,8-1.44h0a28.41,28.41,0,0,0,9.57-3.64h0l.06,0c.63-.37,1.28-.78,2-1.22h0c9.1-6,21.79-18.47,37.45-23.6,16.82-5.51,34.94-6,34.94-6s.09.69.22,1.86c.09.76.2,1.74.31,2.87a1.83,1.83,0,0,1,0,.26A124.56,124.56,0,0,1-1031.07,20.22Z" transform="translate(1192 82)"/><path class="cls-6" d="M-1031.07,20.22c-.45,9-13.64,12.4-33.92,21.08l-.66.27c-19.82,8.23-28.46.25-44.61.41-15.65.14-17.38-5.26-14.49-7.33a3.14,3.14,0,0,0,.83,1.93c3.89,3.9,31.88,4.16,41.35,4.16s26.45-9.47,39-15.74c11.63-5.81,12-19.34,11.82-21.59A124.56,124.56,0,0,1-1031.07,20.22Z" transform="translate(1192 82)"/><path class="cls-6" d="M-1091.17,43.76s-7.94-4.3-4.6-16.71c0,0-.83,13.14,9,15.24C-1086.79,42.29-1089.68,44.9-1091.17,43.76Z" transform="translate(1192 82)"/><path class="cls-6" d="M-1082.77,42.8s-8.12-3.94-5.33-16.49c0,0-.25,13.17,9.65,14.83C-1078.45,41.14-1081.23,43.87-1082.77,42.8Z" transform="translate(1192 82)"/><path class="cls-6" d="M-1071.49,40.05s-8.12-3.94-5.34-16.49c0,0-.24,13.17,9.66,14.82C-1067.17,38.38-1069.95,41.12-1071.49,40.05Z" transform="translate(1192 82)"/><path class="cls-6" d="M-1059.58,36.55s-8.12-3.94-5.34-16.49c0,0-.25,13.17,9.65,14.83C-1055.27,34.89-1058,37.62-1059.58,36.55Z" transform="translate(1192 82)"/><path class="cls-6" d="M-1047.58,31.68s-8.12-3.94-5.33-16.5c0,0-.25,13.17,9.65,14.83C-1043.26,30-1046,32.75-1047.58,31.68Z" transform="translate(1192 82)"/><path class="cls-6" d="M-1037.65,26.24s-8.12-3.94-5.34-16.49c0,0-.25,13.17,9.65,14.83C-1033.34,24.58-1036.12,27.31-1037.65,26.24Z" transform="translate(1192 82)"/><path class="cls-6" d="M-1032.11.28c-4.22.22-19.61,1.25-31.25,4.54C-1077,8.66-1092.6,20.23-1098.86,25s-8.17,7.44-17.45,8a28.41,28.41,0,0,0,9.57-3.64h0l.06,0c.63-.37,1.28-.78,2-1.22h0c9.1-6,21.79-18.47,37.45-23.6,16.82-5.51,34.94-6,34.94-6S-1032.24-.89-1032.11.28Z" transform="translate(1192 82)"/><path class="cls-5" d="M-1033.18,1.07S-1053-13-1076.51-15.55c-24.28-2.59-28.91-9-28.91-9s2.57,33.71,42.69,32C-1038.34,6.33-1033.18,1.07-1033.18,1.07Z" transform="translate(1192 82)"/><path class="cls-7" d="M-985.71,28.43h0a9.48,9.48,0,0,1-.36,1.26h0l-.07.19-.15.37a9.52,9.52,0,0,1-5.59,5.16c-5,1.85-8.93,1.35-11.89-.53a11.67,11.67,0,0,1-2.5-2.16s-7.07-.25-8.35-3.95c-.83-2.4,5.09-7,9.36-10h0c.52-.36,1-.7,1.48-1h0c1.56-1,2.66-1.7,2.66-1.7s5.67-.88,6,3.81c0,0,4.88-2.59,8,1.5a8.11,8.11,0,0,1,1.54,4A9.16,9.16,0,0,1-985.71,28.43Z" transform="translate(1192 82)"/><path class="cls-6" d="M-1025.58,19.89l-10.85-13.77a1.14,1.14,0,0,0-2,.88c1.09,6.93,3.74,21.24,8.54,33.26,6.61,16.56,11.58,33.9,13.36,38s21.73,43.06,21.73,43.06.57.44,1.69-.27l-20.63-43.93-12.4-38.52a139,139,0,0,1-7.75-25l7.88,9.72A2.38,2.38,0,0,0-1025.58,19.89Z" transform="translate(1192 82)"/><path class="cls-6" d="M-1012.56,28.46s-9.83,2.37-11,5,8.5,5.19,11.26,10.39,5.71,27.89,5.71,27.89l1-.15s-2.06-21.94-2.89-26.21-8.18-9.64-9.76-10.8,7.57-3.81,7.57-3.81S-1010.5,28.14-1012.56,28.46Z" transform="translate(1192 82)"/><path class="cls-4" d="M-1058.5,8.91s-5.3-5.31-10.26-6.66-9.34,11.21-17.37,24.06-10,31.62-22.13,38.24-30,23.9-30,23.9l3.35-.52s16.35-14.77,26.36-20.52,16.49-16.18,20.91-28.48,15.75-33.29,18-33.5,9.67,6.21,10.57,6.07C-1059.08,11.5-1058.06,11.29-1058.5,8.91Z" transform="translate(1192 82)"/><path class="cls-8" d="M-986.29,30.26a9.52,9.52,0,0,1-5.59,5.16c-6.57,2.43-11.3.81-14.39-2.69,0,0-7.07-.25-8.35-3.95-.83-2.4,5.09-7,9.36-10-1.33,1.09-3,3-2.27,5.54,1.09,4,4.75,2,4.87,1.95-.06.16-2.15,6.22,4,7.05C-992.73,34.14-987.36,32.17-986.29,30.26Z" transform="translate(1192 82)"/><path class="cls-4" d="M-985.71,28.43h0a9.48,9.48,0,0,1-.36,1.26h0l-.07.19-.15.37a9.52,9.52,0,0,1-5.59,5.16c-5,1.85-8.93,1.35-11.89-.53l1.9-3s-.32-5.46,3.8-6.16a6.57,6.57,0,0,1,6.2,1.93s1.16-3.91,4.66-3.34a2.6,2.6,0,0,1,1.66,1.08A9.16,9.16,0,0,1-985.71,28.43Z" transform="translate(1192 82)"/><path class="cls-6" d="M-985.71,28.43h0s1-6-4.07-7.74a6.78,6.78,0,0,0-6.68,1.17,3.17,3.17,0,0,0-.63-4.05c-2-2.11-6.68,0-6.68,0,1.56-1,2.66-1.7,2.66-1.7s5.67-.88,6,3.81c0,0,4.88-2.59,8,1.5A8.67,8.67,0,0,1-985.71,28.43Z" transform="translate(1192 82)"/><path class="cls-4" d="M-989.44,32.17c-.39-.57-4.35-.42-6,3.54,0,0,7.26,16.2,8.6,18.63s14.64,21.82,14.64,21.82l1.37-.21S-983.38,57.5-984.7,53.57-989.44,32.17-989.44,32.17Z" transform="translate(1192 82)"/><path class="cls-4" d="M-1000.5,25s-4.29-8.88-5.14-14.52-1.48-27-6.38-31.53c0,0,1,0,2.4,2.24.84,1.35,2.52,6.55,3.18,14.26.32,3.69,1.41,12.06,1.67,15s4.37,12.43,5.24,13.65C-999.53,24.1-999.55,25.11-1000.5,25Z" transform="translate(1192 82)"/><path class="cls-4" d="M-990.83,22.05s1.43-9.75.56-15.38-6.7-26.25-3.36-32c0,0-1,.3-1.62,2.86-.4,1.54-.44,7,1.23,14.55.81,3.62,2.27,11.93,2.91,14.85s-.44,13.16-.91,14.59A.84.84,0,0,0-990.83,22.05Z" transform="translate(1192 82)"/><ellipse class="cls-9" cx="194.72" cy="111.53" rx="2.58" ry="2.41"/><ellipse class="cls-9" cx="203.41" cy="109.74" rx="2.58" ry="2.41"/></svg>