<svg id="services1" xmlns="http://www.w3.org/2000/svg" width="110" height="110" viewBox="0 0 110 110">
  <g id="bg">
    <circle id="Ellipse_8" data-name="Ellipse 8" cx="52.5" cy="52.5" r="52.5" fill="#fff" opacity="0.1"/>
    <circle id="Ellipse_9" data-name="Ellipse 9" cx="52.5" cy="52.5" r="52.5" transform="translate(5 5)" fill="#fff" opacity="0.1"/>
  </g>
  <g id="heartbeat" transform="translate(26 31)">
    <g id="Group_413" data-name="Group 413" transform="translate(38.549 33.8)">
      <g id="Group_412" data-name="Group 412" transform="translate(0 0)">
        <path id="Path_443" data-name="Path 443" d="M337.7,341.586a1.148,1.148,0,0,0-1.624.017l-.033.033a1.148,1.148,0,0,0,1.641,1.607l.033-.033A1.148,1.148,0,0,0,337.7,341.586Z" transform="translate(-335.718 -341.258)" fill="#fff"/>
      </g>
    </g>
    <g id="Group_415" data-name="Group 415" transform="translate(43.338 17.89)">
      <g id="Group_414" data-name="Group 414" transform="translate(0 0)">
        <path id="Path_444" data-name="Path 444" d="M386.974,206.9h-3.051V203.85a1.148,1.148,0,1,0-2.3,0V206.9h-3.051a1.148,1.148,0,0,0,0,2.3h3.051v3.051a1.148,1.148,0,1,0,2.3,0V209.2h3.051a1.148,1.148,0,0,0,0-2.3Z" transform="translate(-377.426 -202.702)" fill="#fff"/>
      </g>
    </g>
    <g id="Group_417" data-name="Group 417">
      <g id="Group_416" data-name="Group 416" transform="translate(0 0)">
        <path id="Path_445" data-name="Path 445" d="M52.441,60.756A15.826,15.826,0,0,0,36.876,46.9,15.347,15.347,0,0,0,26.3,51.092,15.348,15.348,0,0,0,15.714,46.9,15.923,15.923,0,0,0,0,62.987a14.082,14.082,0,0,0,1.529,5.886h-.38a1.148,1.148,0,0,0,0,2.3h1.6A65.047,65.047,0,0,0,12.912,83.528,148.007,148.007,0,0,0,25.6,94.683a1.148,1.148,0,0,0,1.395,0c.048-.037,4.909-3.764,10.3-8.842a1.148,1.148,0,0,0-1.575-1.671c-4.108,3.873-7.9,6.944-9.417,8.143a147.2,147.2,0,0,1-11.78-10.431A68.3,68.3,0,0,1,5.45,71.17h10.28a1.148,1.148,0,0,0,1.1-.832l2.006-6.993,5.556,17.8a1.148,1.148,0,0,0,2.192,0l3.077-9.86H34.79a1.148,1.148,0,1,0,0-2.3H28.82a1.148,1.148,0,0,0-1.1.806l-2.232,7.154L19.889,59a1.148,1.148,0,0,0-2.2.025l-2.825,9.847H4.091A13.058,13.058,0,0,1,2.3,62.987,13.624,13.624,0,0,1,15.714,49.2a13.129,13.129,0,0,1,9.737,4.3,1.148,1.148,0,0,0,1.688,0,13.129,13.129,0,0,1,9.737-4.3A13.5,13.5,0,0,1,50,60.118a10.108,10.108,0,1,0,2.437.638ZM48.686,77.945a7.808,7.808,0,1,1,7.808-7.808A7.817,7.817,0,0,1,48.686,77.945Z" transform="translate(0 -46.899)" fill="#fff"/>
      </g>
    </g>
  </g>
</svg>
