<svg xmlns="http://www.w3.org/2000/svg" xmlns:xlink="http://www.w3.org/1999/xlink" width="110" height="110" viewBox="0 0 110 110">
  <defs>
    <clipPath id="clip-path">
      <rect width="110" height="110" fill="none"/>
    </clipPath>
  </defs>
  <g id="services2" clip-path="url(#clip-path)">
    <g id="services2-2" data-name="services2">
      <g id="bg">
        <circle id="Ellipse_8" data-name="Ellipse 8" cx="52.5" cy="52.5" r="52.5" fill="#fff" opacity="0.1"/>
        <circle id="Ellipse_9" data-name="Ellipse 9" cx="52.5" cy="52.5" r="52.5" transform="translate(5 5)" fill="#fff" opacity="0.1"/>
      </g>
      <g id="brain" transform="translate(31 31)">
        <g id="Group_383" data-name="Group 383" transform="translate(6.225 6.225)">
          <g id="Group_382" data-name="Group 382">
            <path id="Path_428" data-name="Path 428" d="M101.84,83.2a6.537,6.537,0,0,0-3.535-5.8,5.726,5.726,0,0,0-.978-4.314,5.96,5.96,0,0,0-3.9-2.463,5,5,0,0,0-1.309-2.912,5.31,5.31,0,0,0-8.193.484,5.31,5.31,0,0,0-8.193-.484,5,5,0,0,0-1.309,2.912,5.961,5.961,0,0,0-3.9,2.463,5.726,5.726,0,0,0-.978,4.314A6.52,6.52,0,0,0,68.8,88.549a5.575,5.575,0,0,0-.379,5.3A5.983,5.983,0,0,0,73.9,97.488q.276,0,.555-.025a5.078,5.078,0,0,0,1.264,2.661,5.31,5.31,0,0,0,8.206-.47,5.309,5.309,0,0,0,8.205.471,5.077,5.077,0,0,0,1.264-2.661q.279.025.555.025h0a5.984,5.984,0,0,0,5.472-3.635,5.574,5.574,0,0,0-.379-5.3A6.5,6.5,0,0,0,101.84,83.2ZM82.977,96.733h0a3.29,3.29,0,0,1-3.348,3.222,3.4,3.4,0,0,1-2.519-1.1,3.137,3.137,0,0,1-.815-1.831,4.029,4.029,0,0,0,2.47-2.7c.277-.729.416-1.095,1.205-1.306a.943.943,0,1,0-.488-1.822A3.4,3.4,0,0,0,77,93.658a2.283,2.283,0,0,1-1.889,1.772h-.006A4.57,4.57,0,0,1,73.9,95.6a4.1,4.1,0,0,1-3.741-2.5,3.771,3.771,0,0,1,.737-4.181.943.943,0,0,0-.282-1.5,4.653,4.653,0,0,1,.368-8.617.943.943,0,0,0,.558-1.18,3.851,3.851,0,0,1,.52-3.464,4.126,4.126,0,0,1,3.313-1.749,2.3,2.3,0,0,1,2.448,1.529,2.923,2.923,0,0,0,2.7,1.911.943.943,0,1,0,0-1.886c-.486,0-.613-.154-1.046-.937A4.059,4.059,0,0,0,76.323,70.6a3.148,3.148,0,0,1,.8-1.623,3.4,3.4,0,0,1,2.511-1.091,3.29,3.29,0,0,1,3.348,3.222V83.866a3.749,3.749,0,0,1-3.446-2.472,4.724,4.724,0,0,0-3.972-3,.943.943,0,0,0-.2,1.876c1.5.158,1.9.9,2.514,2.023a11.519,11.519,0,0,0,.758,1.256,8.052,8.052,0,0,1-2.1,1.45.943.943,0,1,0,.838,1.69,9.758,9.758,0,0,0,2.618-1.833,6.392,6.392,0,0,0,2.986.9Zm14.254-9.307a.943.943,0,0,0-.282,1.5,3.771,3.771,0,0,1,.737,4.181,4.1,4.1,0,0,1-3.741,2.5h0a4.568,4.568,0,0,1-1.211-.169h-.006a2.283,2.283,0,0,1-1.889-1.772A3.4,3.4,0,0,0,88.358,91.2a.943.943,0,1,0-.488,1.822c.789.212.928.577,1.205,1.306a4.029,4.029,0,0,0,2.47,2.7,3.135,3.135,0,0,1-.815,1.831,3.4,3.4,0,0,1-2.518,1.1,3.29,3.29,0,0,1-3.348-3.222V89.981a2.6,2.6,0,0,1,1.731-2.764A2.5,2.5,0,0,1,89.364,88.6.943.943,0,0,0,91,87.653,4.386,4.386,0,0,0,86.106,85.4a3.936,3.936,0,0,0-1.243.578V79.89a3.972,3.972,0,0,1,3.305,1.784,5.783,5.783,0,0,0,2.943,2.177.943.943,0,0,0,.572-1.8,3.986,3.986,0,0,1-2.054-1.574A5.782,5.782,0,0,0,84.863,78V71.109a3.29,3.29,0,0,1,3.348-3.222,3.4,3.4,0,0,1,2.511,1.091,3.15,3.15,0,0,1,.8,1.623,4.059,4.059,0,0,0-3.144,2.432c-.433.784-.56.937-1.046.937a.943.943,0,0,0,0,1.886,2.923,2.923,0,0,0,2.7-1.911,2.3,2.3,0,0,1,2.448-1.529,4.125,4.125,0,0,1,3.313,1.749,3.851,3.851,0,0,1,.52,3.464.943.943,0,0,0,.558,1.18,4.653,4.653,0,0,1,.369,8.617Z" transform="translate(-66 -66.001)" fill="#fff"/>
          </g>
        </g>
        <g id="Group_385" data-name="Group 385" transform="translate(33.348 22.577)">
          <g id="Group_384" data-name="Group 384">
            <path id="Path_429" data-name="Path 429" d="M354.533,239.374h-.012a.943.943,0,0,0,0,1.886h.012a.943.943,0,0,0,0-1.886Z" transform="translate(-353.578 -239.374)" fill="#fff"/>
          </g>
        </g>
        <g id="Group_387" data-name="Group 387" transform="translate(13.711 26.016)">
          <g id="Group_386" data-name="Group 386">
            <path id="Path_430" data-name="Path 430" d="M147.255,276.6a.944.944,0,0,0-1.11-.74l-.04.009a.943.943,0,1,0,1.15.731Z" transform="translate(-145.373 -275.84)" fill="#fff"/>
          </g>
        </g>
        <g id="Group_389" data-name="Group 389" transform="translate(23.202)">
          <g id="Group_388" data-name="Group 388">
            <path id="Path_431" data-name="Path 431" d="M246.943,0A.943.943,0,0,0,246,.943V2.83a.943.943,0,0,0,1.886,0V.943A.943.943,0,0,0,246.943,0Z" transform="translate(-246)" fill="#fff"/>
          </g>
        </g>
        <g id="Group_391" data-name="Group 391" transform="translate(11.601 3.108)">
          <g id="Group_390" data-name="Group 390">
            <path id="Path_432" data-name="Path 432" d="M125.7,35.062l-.943-1.634a.943.943,0,0,0-1.634.943l.943,1.634a.943.943,0,0,0,1.634-.943Z" transform="translate(-122.998 -32.957)" fill="#fff"/>
          </g>
        </g>
        <g id="Group_393" data-name="Group 393" transform="translate(3.108 11.601)">
          <g id="Group_392" data-name="Group 392">
            <path id="Path_433" data-name="Path 433" d="M36,124.068l-1.634-.943a.943.943,0,0,0-.943,1.634l1.634.943A.943.943,0,0,0,36,124.068Z" transform="translate(-32.955 -122.999)" fill="#fff"/>
          </g>
        </g>
        <g id="Group_395" data-name="Group 395" transform="translate(0 23.202)">
          <g id="Group_394" data-name="Group 394">
            <path id="Path_434" data-name="Path 434" d="M2.83,246H.943a.943.943,0,0,0,0,1.886H2.83a.943.943,0,0,0,0-1.886Z" transform="translate(0 -246.001)" fill="#fff"/>
          </g>
        </g>
        <g id="Group_397" data-name="Group 397" transform="translate(3.108 33.86)">
          <g id="Group_396" data-name="Group 396">
            <path id="Path_435" data-name="Path 435" d="M36.349,359.472a.943.943,0,0,0-1.288-.345l-1.634.943a.943.943,0,1,0,.943,1.634L36,360.761A.943.943,0,0,0,36.349,359.472Z" transform="translate(-32.955 -359.001)" fill="#fff"/>
          </g>
        </g>
        <g id="Group_399" data-name="Group 399" transform="translate(11.601 41.662)">
          <g id="Group_398" data-name="Group 398">
            <path id="Path_436" data-name="Path 436" d="M125.356,441.847a.943.943,0,0,0-1.288.345l-.943,1.634a.943.943,0,1,0,1.634.943l.943-1.634A.943.943,0,0,0,125.356,441.847Z" transform="translate(-122.998 -441.721)" fill="#fff"/>
          </g>
        </g>
        <g id="Group_401" data-name="Group 401" transform="translate(23.202 44.518)">
          <g id="Group_400" data-name="Group 400">
            <path id="Path_437" data-name="Path 437" d="M246.943,472a.943.943,0,0,0-.943.943v1.886a.943.943,0,0,0,1.886,0v-1.886A.943.943,0,0,0,246.943,472Z" transform="translate(-246 -472.002)" fill="#fff"/>
          </g>
        </g>
        <g id="Group_403" data-name="Group 403" transform="translate(33.86 41.662)">
          <g id="Group_402" data-name="Group 402">
            <path id="Path_438" data-name="Path 438" d="M361.7,443.828l-.943-1.634a.943.943,0,1,0-1.634.943l.943,1.634a.943.943,0,1,0,1.634-.943Z" transform="translate(-359 -441.723)" fill="#fff"/>
          </g>
        </g>
        <g id="Group_405" data-name="Group 405" transform="translate(41.662 33.86)">
          <g id="Group_404" data-name="Group 404">
            <path id="Path_439" data-name="Path 439" d="M444.77,360.07l-1.634-.943a.943.943,0,0,0-.943,1.634l1.634.943a.943.943,0,0,0,.943-1.634Z" transform="translate(-441.721 -359)" fill="#fff"/>
          </g>
        </g>
        <g id="Group_407" data-name="Group 407" transform="translate(44.518 23.202)">
          <g id="Group_406" data-name="Group 406">
            <path id="Path_440" data-name="Path 440" d="M474.832,246h-1.886a.943.943,0,0,0,0,1.886h1.886a.943.943,0,0,0,0-1.886Z" transform="translate(-472.002 -246.001)" fill="#fff"/>
          </g>
        </g>
        <g id="Group_409" data-name="Group 409" transform="translate(41.662 11.601)">
          <g id="Group_408" data-name="Group 408">
            <path id="Path_441" data-name="Path 441" d="M445.114,123.47a.943.943,0,0,0-1.288-.345l-1.634.943a.943.943,0,1,0,.943,1.634l1.634-.943A.943.943,0,0,0,445.114,123.47Z" transform="translate(-441.72 -122.998)" fill="#fff"/>
          </g>
        </g>
        <g id="Group_411" data-name="Group 411" transform="translate(33.86 3.108)">
          <g id="Group_410" data-name="Group 410">
            <path id="Path_442" data-name="Path 442" d="M361.358,33.082a.943.943,0,0,0-1.288.345l-.943,1.634A.943.943,0,1,0,360.76,36l.943-1.634A.943.943,0,0,0,361.358,33.082Z" transform="translate(-359 -32.956)" fill="#fff"/>
          </g>
        </g>
      </g>
    </g>
  </g>
</svg>
