<svg id="services3" xmlns="http://www.w3.org/2000/svg" width="110" height="110" viewBox="0 0 110 110">
  <g id="bg">
    <circle id="Ellipse_8" data-name="Ellipse 8" cx="52.5" cy="52.5" r="52.5" fill="#fff" opacity="0.1"/>
    <circle id="Ellipse_9" data-name="Ellipse 9" cx="52.5" cy="52.5" r="52.5" transform="translate(5 5)" fill="#fff" opacity="0.1"/>
  </g>
  <g id="yoga" transform="translate(30.979 30.979)">
    <path id="Path_446" data-name="Path 446" d="M199.136,6.568a6.568,6.568,0,1,0-6.568,6.568A6.576,6.576,0,0,0,199.136,6.568Zm-6.568,4.692a4.692,4.692,0,1,1,4.691-4.692A4.7,4.7,0,0,1,192.568,11.26Z" transform="translate(-168.548)" fill="#fff"/>
    <path id="Path_447" data-name="Path 447" d="M11.072,153.136a15.913,15.913,0,0,0,5.046-.828c.429,2.249.862,4.555,1.113,6.728a44.966,44.966,0,0,0-9.2.966c-3.09.775-4.657,2.159-4.657,4.112,0,2.287,2.258,4.935,6.039,7.083a.938.938,0,1,0,.927-1.632c-3.516-2-5.09-4.178-5.09-5.452,0-2.621,7.439-3.1,13.035-3.23a13.547,13.547,0,0,0,11.462,0c5.6.131,13.035.609,13.035,3.23,0,3.149-6.434,6.37-9.509,7.4a5.614,5.614,0,0,0-2-3.237,5.9,5.9,0,0,0-.951-.616,12.583,12.583,0,0,1,4.954-1.206.938.938,0,1,0,0-1.877,15,15,0,0,0-5.986,1.478,19.8,19.8,0,0,1-3.184,1.1l-.013,0a9.569,9.569,0,0,1-2.076.234,13.3,13.3,0,0,1-5.274-1.337,14.994,14.994,0,0,0-5.986-1.478.938.938,0,1,0,0,1.877,13.3,13.3,0,0,1,5.274,1.337,14.994,14.994,0,0,0,5.986,1.478,11.552,11.552,0,0,0,2.552-.294,4.146,4.146,0,0,1,3.535.769,3.694,3.694,0,0,1,1.366,2.309,29.144,29.144,0,0,1-13.51.333.938.938,0,1,0-.389,1.836,31.174,31.174,0,0,0,6.446.677c11.274,0,20.643-6.217,20.643-10.79,0-4.638-8.9-4.925-13.853-5.078.25-2.173.683-4.477,1.112-6.725a15.7,15.7,0,0,0,5.047.825c5.005,0,10.8-2.806,11.071-7.643a.938.938,0,0,0-1.31-.913,14.705,14.705,0,0,1-5.539,1.049,13.213,13.213,0,0,1-8.468-2.881A14.849,14.849,0,0,0,24.087,140h-.133a14.874,14.874,0,0,0-8.966,2.99,13.166,13.166,0,0,1-8.138,2.64,14.7,14.7,0,0,1-5.539-1.049.938.938,0,0,0-1.31.913c.267,4.851,6.087,7.643,11.071,7.643Zm8.066,6.073c-.521-4.913-1.967-10.287-2.459-15.122a12.911,12.911,0,0,1,3.589-1.684v1.349a3.753,3.753,0,0,0,7.506,0V142.4a12.916,12.916,0,0,1,3.589,1.684c-.485,4.791-1.937,10.2-2.459,15.121A11.678,11.678,0,0,1,19.138,159.209Zm22.053-11.7a17.737,17.737,0,0,0,4.584-.614c-1.169,2.482-4.778,4.367-8.807,4.367a13.791,13.791,0,0,1-4.693-.817c.324-1.73.623-3.433.833-5.105A15.6,15.6,0,0,0,41.191,147.506Zm-17.1-5.63A13.244,13.244,0,0,1,25.9,142v1.751a1.877,1.877,0,0,1-3.753,0V142a13.243,13.243,0,0,1,1.81-.125ZM6.85,147.506a15.6,15.6,0,0,0,8.083-2.17c.213,1.692.517,3.424.832,5.1a13.76,13.76,0,0,1-4.692.818c-4.029,0-7.638-1.885-8.807-4.367A17.737,17.737,0,0,0,6.85,147.506Z" transform="translate(0 -126.864)" fill="#fff"/>
    <circle id="Ellipse_10" data-name="Ellipse 10" cx="1" cy="1" r="1" transform="translate(13.021 44.021)" fill="#fff"/>
  </g>
</svg>
